<svg width="18" height="21" viewBox="0 0 18 21" fill="none" xmlns="http://www.w3.org/2000/svg">
<path d="M7.865 0C6.96566 0 6.33445 0.636798 6.02164 1.43H2.145C0.966367 1.43 0 2.39637 0 3.575V16.445C0 17.6236 0.966367 18.59 2.145 18.59H5.72V17.16H2.145C1.74281 17.16 1.43 16.8472 1.43 16.445V3.575C1.43 3.17281 1.74281 2.86 2.145 2.86H4.29V5.72H11.44V2.86H13.585C13.9872 2.86 14.3 3.17281 14.3 3.575V8.58H15.73V3.575C15.73 2.39637 14.7636 1.43 13.585 1.43H9.70836C9.39555 0.636798 8.76434 0 7.865 0ZM7.865 1.43C8.26719 1.43 8.58 1.74281 8.58 2.145V2.86H10.01V4.29H5.72V2.86H7.15V2.145C7.15 1.74281 7.46281 1.43 7.865 1.43ZM7.865 10.01C7.4684 10.01 7.15 10.3284 7.15 10.725C7.15 11.1216 7.4684 11.44 7.865 11.44C8.2616 11.44 8.58 11.1216 8.58 10.725C8.58 10.3284 8.2616 10.01 7.865 10.01ZM10.725 10.01C10.3284 10.01 10.01 10.3284 10.01 10.725C10.01 11.1216 10.3284 11.44 10.725 11.44C11.1216 11.44 11.44 11.1216 11.44 10.725C11.44 10.3284 11.1216 10.01 10.725 10.01ZM13.585 10.01C13.1884 10.01 12.87 10.3284 12.87 10.725C12.87 11.1216 13.1884 11.44 13.585 11.44C13.9816 11.44 14.3 11.1216 14.3 10.725C14.3 10.3284 13.9816 10.01 13.585 10.01ZM16.445 10.01C16.0484 10.01 15.73 10.3284 15.73 10.725C15.73 11.1216 16.0484 11.44 16.445 11.44C16.8416 11.44 17.16 11.1216 17.16 10.725C17.16 10.3284 16.8416 10.01 16.445 10.01ZM7.865 12.87C7.4684 12.87 7.15 13.1884 7.15 13.585C7.15 13.9816 7.4684 14.3 7.865 14.3C8.2616 14.3 8.58 13.9816 8.58 13.585C8.58 13.1884 8.2616 12.87 7.865 12.87ZM16.445 12.87C16.0484 12.87 15.73 13.1884 15.73 13.585C15.73 13.9816 16.0484 14.3 16.445 14.3C16.8416 14.3 17.16 13.9816 17.16 13.585C17.16 13.1884 16.8416 12.87 16.445 12.87ZM7.865 15.73C7.4684 15.73 7.15 16.0484 7.15 16.445C7.15 16.8416 7.4684 17.16 7.865 17.16C8.2616 17.16 8.58 16.8416 8.58 16.445C8.58 16.0484 8.2616 15.73 7.865 15.73ZM16.445 15.73C16.0484 15.73 15.73 16.0484 15.73 16.445C15.73 16.8416 16.0484 17.16 16.445 17.16C16.8416 17.16 17.16 16.8416 17.16 16.445C17.16 16.0484 16.8416 15.73 16.445 15.73ZM7.865 18.59C7.4684 18.59 7.15 18.9084 7.15 19.305C7.15 19.7016 7.4684 20.02 7.865 20.02C8.2616 20.02 8.58 19.7016 8.58 19.305C8.58 18.9084 8.2616 18.59 7.865 18.59ZM10.725 18.59C10.3284 18.59 10.01 18.9084 10.01 19.305C10.01 19.7016 10.3284 20.02 10.725 20.02C11.1216 20.02 11.44 19.7016 11.44 19.305C11.44 18.9084 11.1216 18.59 10.725 18.59ZM13.585 18.59C13.1884 18.59 12.87 18.9084 12.87 19.305C12.87 19.7016 13.1884 20.02 13.585 20.02C13.9816 20.02 14.3 19.7016 14.3 19.305C14.3 18.9084 13.9816 18.59 13.585 18.59ZM16.445 18.59C16.0484 18.59 15.73 18.9084 15.73 19.305C15.73 19.7016 16.0484 20.02 16.445 20.02C16.8416 20.02 17.16 19.7016 17.16 19.305C17.16 18.9084 16.8416 18.59 16.445 18.59Z" fill="black"/>
</svg>
