<svg width="61" height="56" viewBox="0 0 61 56" fill="none" xmlns="http://www.w3.org/2000/svg">
<path d="M8.13823 21.7976C8.15253 21.7821 8.35508 23.4026 7.08138 22.3243L5.81603 21.8487L4.5185 21.9914L4.02284 21.0569C4.06097 20.9487 4.27305 20.9131 6.38317 16.6509C7.43764 14.3338 10.6511 11.7349 14.7152 10.7802C18.3207 9.60559 23.6275 7.59875 30.9123 8.24075C30.9325 8.34062 33.5514 8.28831 38.3579 10.4925C39.5493 11.119 39.8901 11.3984 41.2055 13.0177C41.8692 13.7881 42.5626 14.4004 42.8998 15.7129L43.0356 16.7436L43.0821 17.2679V17.3333V17.3678V17.3821C39.4004 22.7665 42.055 18.8789 41.2329 20.082L41.165 20.0999L41.0268 20.1403L39.9151 20.466C38.4127 20.9047 38.3662 21.8083 36.6981 22.2755C36.0142 22.48 34.6809 22.8093 34.4724 22.9163C34.2639 23.0233 33.7706 23.273 33.381 23.4751C33.1558 23.594 32.964 23.6927 32.7114 23.8199L32.292 24.0172L32.074 24.1135L32.0478 24.1278H32.0335C32.4231 21.951 31.141 29.0022 32.9044 19.2534L32.9223 19.2676L32.9604 19.2962C33.1654 19.2819 33.0224 19.956 35.988 20.3412C36.3168 20.3816 37.9551 21.1437 41.3199 21.8142C43.2846 22.1745 46.2324 23.4371 48.2579 24.5772C50.5301 25.6234 53.0024 26.8361 55.6082 27.4805L56.0979 27.6291L56.217 27.6647L56.2468 27.6742C50.8482 31.0281 54.7551 28.5861 53.5541 29.3268L53.5707 29.2674L53.641 29.0236L53.9318 28.0345C54.0819 27.2902 54.2606 26.5615 54.3631 25.7399C54.6181 24.1409 54.7586 22.4111 54.8647 20.6396C55.0089 17.3535 54.9838 12.8477 55.6606 9.01115C55.9275 7.07564 56.1503 5.20672 56.2659 3.40199C56.2814 2.54362 56.3004 1.67455 56.198 1.01709L56.1753 0.748405V0.716305C55.3175 0.429784 63.6674 3.00372 60.1156 1.93491L60.0512 2.011L59.9166 2.16555L59.3888 2.77426C59.0313 3.19037 58.7025 3.49829 58.3605 3.86685C57.0165 5.23525 55.6832 6.49428 54.5847 7.7545C54.0914 8.29425 53.4695 9.18116 53.5124 9.21564C53.504 9.22752 53.5469 9.25011 53.2657 9.16332L52.9678 9.09675C53.3968 8.65686 48.5701 12.7966 50.5956 11.0334L50.5479 11.018L50.2 10.8801L49.5459 10.6078L48.2722 10.0372C44.8109 8.55699 42.0121 6.12454 39.1478 5.13301C33.1737 2.974 27.0137 2.06212 22.3526 4.22232C12.3334 8.63903 8.17398 16.7056 7.47815 18.6982C7.61398 18.6625 8.81619 14.2517 13.5547 9.90043C18.2492 5.36009 25.5184 1.06821 33.7897 3.45312C38.2673 4.3852 41.3926 5.24357 45.415 7.92926C46.3861 8.47972 47.1474 9.41418 48.1161 9.88379L49.5781 10.5424L50.318 10.8504L50.5146 10.9288L50.6206 10.9692C48.5951 12.6717 53.398 8.65805 52.9404 9.07772L53.0262 9.09556L53.199 9.13717C53.6839 9.27746 53.373 9.13717 53.4897 9.14668C53.8472 8.33824 55.5009 6.62744 56.6924 5.46114L58.5988 3.5399C58.9098 3.21772 59.2148 2.90147 59.5317 2.52698L59.9893 1.99673L60.0453 1.93253L60.0739 1.89806L60.0882 1.8826C63.5578 2.93952 55.3794 0.421462 56.2194 0.693716L56.2289 0.812604L56.2468 1.04087C56.4267 2.1608 56.2992 3.65641 56.2182 4.81082C56.0109 7.21831 55.7643 8.97786 55.7249 9.5723C55.7166 9.58419 55.8989 8.41314 56.1384 6.46812C56.2575 5.49205 56.3886 4.321 56.441 3.06078C56.4529 2.44494 56.4875 1.76015 56.3993 1.21445L56.36 0.762671V0.706794V0.677072V0.662805C53.0989 -0.34418 60.8054 2.01576 60.0059 1.78155L59.8975 1.90043L59.6771 2.15248C59.384 2.48299 59.0814 2.85511 58.7811 3.14282C57.5813 4.39947 56.2945 5.57408 55.0756 6.86521C54.4953 7.45361 53.966 8.08996 53.4933 8.76743C53.419 8.85527 53.3623 8.95659 53.3265 9.06584C53.286 9.08961 53.3348 9.14549 53.2073 9.14192L53.0405 9.1015L52.9583 9.08367C53.4051 8.70917 48.7131 12.277 50.6945 10.7624L50.592 10.7243L50.4038 10.6506L48.9883 10.036C45.0981 8.41908 41.8477 5.48135 38.0993 4.31743C30.2927 1.23347 22.2835 2.32011 16.842 6.64051C13.2355 9.14265 10.2026 12.3805 7.94402 16.1397C7.92257 16.1861 9.71099 12.3353 14.2672 8.3002C18.8735 4.28058 25.9771 0.417895 33.8898 2.69461C37.9873 3.52683 41.5022 4.37926 45.0278 6.77842C46.8305 7.83296 48.4247 9.15619 50.2215 9.89568L50.5646 10.03L50.7386 10.1002L50.8327 10.1346L50.8553 10.1442C49.2373 11.169 53.087 8.7591 52.6902 9.00164L52.7045 8.98143L52.8654 8.64497C52.9976 8.37272 53.2824 8.00892 53.4909 7.69386C54.0318 7.02809 54.6073 6.37896 55.2078 5.75717C56.4077 4.50884 57.5908 3.35444 58.6691 2.16199L59.4579 1.22752L59.4698 1.21326C54.6645 -0.265713 58.1377 0.812604 57.0677 0.48685V0.516572V0.576017L57.082 0.694905L57.1059 0.932682L57.1595 1.39516C57.2715 1.96701 57.1917 2.66964 57.2238 3.23793C57.15 5.65493 56.9414 7.46441 56.9272 8.26215C56.9331 8.26215 57.0701 7.24565 57.2846 5.47897C57.3573 4.60871 57.4836 3.52802 57.4776 2.35696C57.5241 1.73875 57.4073 1.19186 57.374 0.564128L57.3644 0.445239V0.416706C58.2044 0.668749 55.4855 -0.169414 59.2458 0.979048L59.2362 0.990937L59.1898 1.04087L59.0075 1.25011L58.6369 1.66979L57.8672 2.48774C56.8163 3.57082 55.6558 4.63843 54.5144 5.82969C53.9311 6.4134 53.3904 7.03796 52.8964 7.69862C52.6497 8.02675 52.4198 8.36321 52.3364 8.63308L52.2256 8.84352C51.6858 9.18591 53.4254 8.09927 51.0138 9.61391L50.9936 9.60559L50.9519 9.58895L50.8673 9.55447L50.7064 9.49027L50.0797 9.21564C47.244 6.76178 43.5265 5.17343 40.1832 3.62788C33.188 0.71036 25.0823 0.0802521 19.3918 3.51969C13.65 6.5668 10.1852 10.7113 8.92104 12.0678C8.62197 11.6671 17.1292 3.55179 20.1555 2.77902C18.5469 3.50312 17.0112 4.37895 15.5695 5.39456C17.875 3.6683 20.3772 2.2678 23.0282 1.369C24.5688 0.847082 26.1511 0.668749 27.7334 0.612872C27.7477 0.624761 24.4771 0.592661 21.2839 1.9361C18.0514 3.08694 15.0667 5.27924 14.6366 5.47184C14.6366 5.47184 13.4356 6.5026 14.6771 5.60618C15.2812 5.13063 16.5084 4.20092 18.9772 2.76475C21.4185 1.51167 25.6102 -0.295435 31.5032 0.0410189C31.4937 0.137318 35.9248 -0.000591848 42.1337 2.16793C45.5175 3.58508 47.4489 4.15931 50.76 6.77842C52.5091 4.84768 54.7908 3.88706 56.7484 1.79819L58.2199 0.180118C58.8859 0.376284 58.625 1.62699 58.7191 2.32011C58.7513 3.98455 58.5511 5.66325 58.3617 7.38713C56.9414 14.1923 58.3021 22.0187 56.1193 30.2363C52.2684 30.5145 48.8822 28.1736 45.216 26.6601C41.6416 25.2489 37.6394 24.2348 33.4906 23.531C32.9127 23.3847 32.359 23.156 31.8464 22.8521C31.5676 22.7237 31.3364 22.4883 31.0886 22.2934L30.9039 22.1388L30.8122 22.0627L30.7657 22.0223C30.6859 22.31 31.2423 19.3675 31.029 20.6016L31.3555 20.4399C32.2598 20.0214 33.2464 19.2427 34.4379 19.0025C36.0285 18.3201 37.0591 17.9325 39.2467 16.6378L40.0545 16.3917L40.4573 16.2728C38.9429 18.5044 40.0343 16.8673 39.6947 17.3535L39.6864 17.3096L39.6721 17.2216L39.6482 17.0456C39.6064 16.576 39.4546 16.1228 39.205 15.7224C38.7403 14.8902 37.948 14.1768 37.0532 13.6109C35.2278 12.4922 34.5928 12.2699 32.3969 11.8882C28.0992 11.3045 23.2665 11.9548 18.914 13.6716C16.4679 14.7261 13.936 15.1803 12.082 16.2871C10.2662 17.2454 9.5561 18.8682 8.13823 21.7976Z" fill="#231F20"/>
<path d="M52.8725 34.2024C52.8558 34.2179 52.6557 32.595 53.927 33.6757L55.1947 34.1513L56.4922 34.0051L56.9855 34.9395C56.9498 35.0477 56.7353 35.0834 54.6252 39.3455C53.5707 41.6627 50.3597 44.2616 46.2943 45.2162C42.6865 46.3908 37.382 48.3977 30.0973 47.7557C30.077 47.6558 27.4581 47.7081 22.6517 45.5039C21.4602 44.875 21.1194 44.598 19.8017 42.9787C19.1404 42.2084 18.4446 41.5961 18.1074 40.2835L17.9715 39.2528L17.9251 38.7285L17.9191 38.6631V38.6286V38.6132C21.5996 33.2299 18.9438 37.1187 19.7683 35.9156L19.8362 35.8978L19.972 35.8573L21.0849 35.5316C22.5874 35.0929 22.6338 34.1893 24.3019 33.7221C24.9882 33.5176 26.3191 33.1883 26.5276 33.0813C26.7361 32.9743 27.2318 32.7246 27.6202 32.5225C27.8454 32.4036 28.0372 32.3049 28.2898 32.1789L28.7175 31.9828L28.9356 31.8865L28.9642 31.8746L28.9761 31.8686C28.5865 34.0443 29.8709 26.9942 28.1075 36.7431L28.0873 36.7288L28.0491 36.7003C27.8466 36.7145 27.9895 36.0404 25.0216 35.6552C24.6927 35.6148 23.0568 34.8551 19.6897 34.1822C17.7249 33.8255 14.7772 32.5653 12.7517 31.4228C10.4795 30.3766 8.00478 29.1639 5.40138 28.5195L4.91049 28.3709L4.79134 28.3353L4.75917 28.3258C10.1602 24.9719 6.25091 27.4139 7.45431 26.6732L7.43644 26.7327L7.36614 26.9764L7.07542 27.9655C6.91338 28.7133 6.74061 29.4374 6.64053 30.2589C6.38436 31.8579 6.24495 33.5878 6.13891 35.3592C5.99474 38.6453 6.01976 43.1511 5.34062 46.9877C5.07372 48.9232 4.85092 50.7921 4.73653 52.5968C4.71866 53.4552 4.70079 54.3243 4.80445 54.9817L4.8247 55.2504V55.2825C5.68257 55.569 -2.66735 52.9951 0.884463 54.0639L0.951186 53.9878L1.08344 53.8333L1.61127 53.2246C1.96871 52.8084 2.29756 52.5005 2.6419 52.132C3.98351 50.7636 5.31679 49.5045 6.41653 48.2443C6.9098 47.7046 7.53176 46.8177 7.48886 46.7832C7.4972 46.7713 7.45431 46.7487 7.7355 46.8355L8.0429 46.908C7.61516 47.3479 12.4431 43.2082 10.4175 44.9713L10.4652 44.9868L10.8119 45.1199L11.466 45.3922L12.7397 45.9628C16.201 47.4394 18.9986 49.8755 21.8617 50.8634C27.8358 53.0224 33.9982 53.9355 38.6617 51.7717C48.6809 47.355 52.8403 39.2885 53.5374 37.2959C53.3992 37.3316 52.1981 41.7423 47.4536 46.0936C42.7592 50.634 35.4899 54.9258 27.2187 52.5409C22.7411 51.6089 19.6158 50.7505 15.5933 48.0648C14.6223 47.5143 13.8609 46.5799 12.8946 46.1115L11.4327 45.4516L10.6904 45.1437L10.4878 45.0641L10.3818 45.026C12.4073 43.3211 7.60444 47.3348 8.06197 46.9151L7.9738 46.8973L7.80341 46.8557C7.31848 46.7154 7.62946 46.8557 7.51269 46.8462C7.15525 47.6546 5.49908 49.3654 4.3076 50.5317L2.40122 52.453C2.08786 52.7752 1.78403 53.0914 1.46829 53.4659L1.01076 53.9938L0.952377 54.0591L0.926165 54.0936L0.911867 54.1103C-2.55774 53.0534 5.62061 55.5714 4.77824 55.2992L4.76989 55.1803L4.75202 54.952C4.57211 53.8321 4.69721 52.3365 4.78062 51.182C4.99985 48.7817 5.2453 47.0221 5.287 46.4277C5.29534 46.4158 5.11304 47.5857 4.87355 49.5319C4.74726 50.5079 4.62334 51.679 4.57092 52.9392C4.55662 53.5551 4.52445 54.2399 4.61143 54.7867L4.64717 55.2373V55.2932V55.3229V55.3372C7.90946 56.3442 0.202933 53.9842 1.00123 54.2185L1.11204 54.0996L1.33008 53.8475C1.62318 53.517 1.93416 53.1449 2.22846 52.8572C3.42828 51.6005 4.71509 50.4259 5.93278 49.1348C6.51377 48.5464 7.04388 47.9101 7.51746 47.2326C7.59056 47.1443 7.64634 47.0431 7.68188 46.9342C7.72239 46.9104 7.68188 46.8545 7.80103 46.8581L7.96784 46.8997L8.05005 46.9151C7.60324 47.2896 12.2953 43.7218 10.3139 45.2364L10.4163 45.2745L10.6046 45.3482L12.0368 45.9605C15.927 47.5774 19.1785 50.5151 22.9257 51.679C30.7252 54.7701 38.732 53.6763 44.1747 49.3595C47.7807 46.8576 50.8129 43.6197 53.0703 39.8603C53.0941 39.8139 51.3033 43.6647 46.7495 47.6998C42.136 51.7194 35.0324 55.5821 27.1221 53.3054C23.0246 52.4732 19.5074 51.6207 15.9818 49.2216C14.179 48.167 12.586 46.8438 10.7893 46.1043L10.4461 45.97L10.2722 45.8998L10.178 45.8654L10.1554 45.8558C11.7722 44.831 7.92375 47.2409 8.31814 46.9984L8.30622 47.0186L8.14537 47.355C8.01312 47.6273 7.72835 47.9911 7.51746 48.3061C6.97772 48.9719 6.40104 49.621 5.80291 50.2428C4.6019 51.4912 3.41994 52.6456 2.33927 53.838L1.55169 54.7725L1.53978 54.7867C6.34504 56.2657 2.87186 55.1874 3.9442 55.5132V55.4834V55.4252L3.9299 55.3063L3.90607 55.0685L3.85007 54.6084C3.73807 54.0366 3.82028 53.3339 3.78811 52.7656C3.86198 50.3486 4.07049 48.5392 4.08241 47.7414C4.08241 47.7414 3.93943 48.7579 3.72496 50.5246C3.65228 51.3949 3.52479 52.4756 3.53194 53.6466C3.48428 54.2648 3.59986 54.8117 3.63679 55.4394L3.64632 55.5583V55.5869C2.81229 55.3348 5.5253 56.173 1.76497 55.0245L1.77688 55.0126L1.82097 54.9627L2.00208 54.7499L2.37501 54.3302L3.14471 53.5123C4.1956 52.4292 5.35491 51.3616 6.49516 50.1703C7.07846 49.5866 7.61918 48.962 8.1132 48.3014C8.35984 47.9733 8.58979 47.6368 8.67439 47.3669L8.78282 47.1565C9.32256 46.8141 7.59133 47.9007 9.99575 46.3861L10.016 46.3944L10.0577 46.4099L10.1423 46.4443L10.3008 46.5085L10.9323 46.7844C13.768 49.237 17.4854 50.8266 20.8287 52.3721C27.8239 55.2896 35.9296 55.9198 41.6201 52.4803C47.3595 49.4332 50.8244 45.2888 52.0885 43.9322C52.3876 44.3329 43.8804 52.4482 40.8564 53.221C42.4646 52.496 44.0002 51.6202 45.4424 50.6054C43.1345 52.3317 40.6324 53.7322 37.9813 54.631C36.4431 55.1529 34.8608 55.3313 33.2762 55.3871C33.2619 55.3752 36.5349 55.4073 39.7257 54.0639C42.9606 52.9131 45.9428 50.7208 46.3754 50.5282C46.3754 50.5282 47.5764 49.4974 46.3336 50.3938C45.7296 50.8694 44.5023 51.7991 42.036 53.2353C39.591 54.4883 35.3994 56.2954 29.5063 55.959C29.5158 55.8627 25.0871 56.0006 18.8783 53.8297C15.4921 52.4149 13.5631 51.8407 10.2495 49.2216C8.49924 51.1523 6.21636 52.1129 4.25994 54.2018L2.79203 55.8199C2.1248 55.6237 2.38692 54.373 2.2928 53.6799C2.25824 52.0155 2.45961 50.3368 2.65024 48.6129C4.06573 41.8065 2.70386 33.9801 4.88785 25.7613C8.73873 25.4831 12.1249 27.824 15.7887 29.3351C19.3632 30.7475 23.3654 31.7628 27.5165 32.4666C28.0939 32.6133 28.6473 32.842 29.1596 33.1455C29.4408 33.2739 29.6695 33.5093 29.9198 33.7043L30.1044 33.8588L30.195 33.9349L30.2415 33.9753C30.3237 33.6876 29.7649 36.6301 29.9781 35.396L29.6517 35.5577C28.7497 35.9762 27.762 36.7549 26.5717 36.9951C24.9799 37.6775 23.9504 38.0651 21.7605 39.3598L20.9538 39.6059L20.5511 39.7248C22.0631 37.4932 20.9741 39.1303 21.3137 38.6441L21.322 38.6881L21.3339 38.776L21.3601 38.952C21.4012 39.4214 21.5522 39.8747 21.801 40.2752C22.2657 41.1074 23.0604 41.8208 23.9552 42.3867C25.7782 43.5054 26.4144 43.7277 28.6091 44.1094C32.9092 44.6931 37.7419 44.0428 42.0932 42.3261C44.5381 41.2715 47.0688 40.8174 48.9251 39.7105C50.7457 38.7546 51.4535 37.1318 52.8725 34.2024Z" fill="#231F20"/>
</svg>
